<?xml version="1.0" standalone="no"?>
<!DOCTYPE svg PUBLIC "-//W3C//DTD SVG 20010904//EN"
 "http://www.w3.org/TR/2001/REC-SVG-20010904/DTD/svg10.dtd">
<svg version="1.0" xmlns="http://www.w3.org/2000/svg"
 width="512.000000pt" height="512.000000pt" viewBox="0 0 512.000000 512.000000"
 preserveAspectRatio="xMidYMid meet">
<metadata>
Created by potrace 1.14, written by Peter Selinger 2001-2017
</metadata>
<g transform="translate(0.000000,512.000000) scale(0.100000,-0.100000)"
fill="#000000" stroke="none">
<path d="M1420 5107 c-49 -16 -123 -93 -138 -143 -49 -167 70 -321 238 -309
62 5 126 40 163 89 36 47 48 82 49 141 2 159 -156 271 -312 222z"/>
<path d="M2389 5116 c-2 -2 -38 -6 -79 -9 -137 -12 -360 -53 -360 -67 0 -4 15
-4 34 0 39 8 413 6 466 -3 19 -4 59 -9 89 -12 268 -28 604 -146 851 -298 204
-127 419 -323 571 -522 207 -270 380 -648 445 -970 2 -11 6 -31 9 -45 14 -65
32 -189 40 -270 6 -61 7 -318 1 -365 -2 -16 -7 -57 -10 -89 -4 -33 -16 -96
-26 -140 -99 -425 -341 -667 -665 -667 -127 1 -201 18 -300 70 -63 33 -67 36
-125 93 -128 124 -166 296 -116 518 23 97 57 201 92 275 46 100 51 171 15 229
-30 48 -73 70 -141 70 -94 0 -150 -45 -250 -199 -87 -133 -118 -166 -159 -167
-44 -1 -81 38 -81 87 0 63 84 300 170 480 50 104 58 151 36 208 -33 88 -157
114 -253 54 -120 -76 -284 -475 -310 -757 -3 -36 -7 -76 -8 -90 -2 -14 -3 -68
-4 -121 -1 -106 -14 -136 -61 -142 -63 -10 -90 28 -96 134 -5 108 -26 149 -98
187 -96 52 -208 -14 -235 -139 -10 -44 -7 -295 4 -354 40 -217 77 -338 150
-487 119 -248 259 -410 540 -626 32 -24 145 -88 217 -122 314 -147 665 -184
1005 -106 72 16 211 60 240 75 10 5 50 23 88 41 273 124 555 377 739 665 150
234 265 551 293 807 10 92 10 390 0 483 -10 90 -15 130 -21 158 -3 12 -12 57
-20 100 -111 558 -440 1098 -890 1461 -91 74 -279 206 -292 206 -4 0 -15 6
-23 14 -28 25 -292 152 -392 190 -172 64 -403 123 -554 141 -27 4 -61 9 -75
11 -30 6 -445 15 -451 10z"/>
<path d="M2700 4747 c-118 -30 -143 -185 -40 -255 29 -20 44 -23 88 -20 57 5
91 29 119 82 28 54 -5 160 -56 182 -38 16 -78 20 -111 11z"/>
<path d="M1018 4565 c-96 -32 -126 -54 -267 -196 -115 -115 -218 -235 -281
-329 -8 -12 -27 -39 -41 -59 -88 -125 -202 -348 -268 -526 -38 -104 -94 -290
-105 -352 -2 -15 -9 -53 -15 -83 -29 -160 -36 -246 -36 -470 1 -113 4 -232 9
-265 4 -33 10 -76 12 -95 3 -19 6 -44 8 -55 2 -11 7 -38 11 -60 15 -81 67
-273 102 -370 141 -399 389 -768 710 -1057 312 -281 749 -504 1153 -587 121
-25 143 -29 210 -37 30 -3 77 -10 103 -14 54 -8 479 -5 516 4 13 3 47 8 75 11
28 2 62 7 76 10 14 3 39 8 55 11 420 74 889 306 1219 603 132 119 298 306 387
436 19 28 37 52 41 53 5 2 8 8 8 14 0 5 14 30 31 56 l31 47 -29 -31 c-15 -17
-48 -55 -73 -85 -178 -213 -421 -391 -675 -492 -496 -198 -1081 -126 -1553
191 -131 88 -168 119 -283 232 -269 268 -433 588 -503 985 -11 60 -19 172 -19
265 0 99 11 268 18 279 2 4 6 29 9 56 9 72 61 275 92 353 117 298 404 754 631
1002 30 33 44 50 86 100 10 12 32 47 49 78 25 47 31 69 32 122 1 57 -3 70 -29
107 -49 68 -94 88 -200 88 -79 0 -97 -3 -148 -29 -73 -36 -180 -140 -392 -381
-89 -101 -100 -113 -168 -197 -61 -75 -120 -123 -165 -135 -40 -10 -111 7
-143 35 -85 71 -76 193 26 342 85 125 106 209 71 290 -53 127 -222 187 -378
135z"/>
<path d="M2863 3836 c-85 -38 -100 -164 -27 -223 68 -54 174 -27 204 53 43
112 -68 218 -177 170z"/>
<path d="M1963 3054 c-107 -53 -119 -206 -21 -276 47 -33 139 -33 187 1 90 64
87 202 -6 266 -44 29 -110 33 -160 9z"/>
</g>
</svg>
