<?xml version="1.0" standalone="no"?>
<!DOCTYPE svg PUBLIC "-//W3C//DTD SVG 20010904//EN"
 "http://www.w3.org/TR/2001/REC-SVG-20010904/DTD/svg10.dtd">
<svg version="1.0" xmlns="http://www.w3.org/2000/svg"
 width="700.000000pt" height="700.000000pt" viewBox="0 0 700.000000 700.000000"
 preserveAspectRatio="xMidYMid meet">
<metadata>
Created by potrace 1.14, written by Peter Selinger 2001-2017
</metadata>
<g transform="translate(0.000000,700.000000) scale(0.100000,-0.100000)"
fill="#000000" stroke="none">
<path d="M3278 6996 c-1 -2 -41 -6 -88 -10 -47 -4 -101 -9 -120 -12 -139 -19
-252 -40 -360 -66 -69 -16 -135 -31 -147 -34 -97 -19 -411 -139 -581 -221
-176 -85 -457 -253 -551 -329 -9 -7 -52 -41 -96 -75 -426 -331 -813 -825
-1020 -1299 -25 -58 -50 -114 -55 -125 -45 -93 -150 -427 -176 -560 -2 -11
-10 -54 -19 -95 -29 -147 -36 -200 -52 -370 -15 -164 -8 -592 12 -711 2 -13 6
-46 9 -74 9 -78 22 -152 51 -285 21 -96 91 -339 114 -395 5 -11 25 -65 46
-120 63 -166 249 -531 312 -610 4 -6 34 -49 65 -95 170 -255 433 -535 708
-755 92 -74 370 -265 386 -265 4 0 15 -6 23 -14 26 -22 298 -158 408 -204 282
-116 583 -199 862 -238 25 -3 57 -8 71 -10 163 -25 682 -25 842 1 13 2 46 7
73 10 72 10 86 12 120 19 17 3 44 8 60 11 194 37 411 101 622 184 130 52 418
192 473 231 15 11 33 20 39 20 6 0 11 5 11 10 0 6 5 10 10 10 15 0 220 141
330 227 151 117 324 281 450 422 36 41 70 79 76 85 65 68 263 353 352 508 47
80 182 351 182 364 0 3 8 24 19 47 53 118 147 417 177 562 17 81 54 301 59
350 4 33 9 71 11 85 9 46 11 524 4 605 -15 153 -21 210 -25 225 -2 8 -7 35
-10 60 -17 129 -80 384 -136 552 -352 1048 -1177 1866 -2235 2217 -145 48
-401 109 -524 126 -19 3 -46 7 -60 10 -13 2 -52 7 -86 11 -33 3 -74 8 -90 10
-33 5 -540 14 -546 10z m447 -231 c629 -39 1232 -264 1750 -654 180 -135 399
-344 540 -515 22 -27 45 -54 50 -60 23 -25 145 -198 205 -291 75 -116 221
-402 270 -525 55 -141 121 -346 135 -418 1 -9 8 -35 13 -57 6 -22 13 -51 16
-65 2 -14 11 -61 19 -105 9 -44 19 -107 22 -140 4 -33 10 -87 15 -120 28 -218
12 -622 -36 -885 -2 -14 -7 -38 -10 -55 -3 -16 -12 -59 -20 -95 -9 -36 -17
-73 -19 -82 -10 -46 -51 -184 -82 -273 -244 -702 -736 -1316 -1368 -1709 -131
-81 -466 -246 -560 -276 -22 -7 -44 -16 -50 -20 -5 -3 -30 -13 -55 -20 -25 -7
-49 -15 -55 -16 -5 -2 -48 -15 -94 -29 -46 -14 -93 -27 -105 -30 -11 -2 -39
-9 -61 -14 -22 -6 -55 -13 -74 -16 -19 -3 -37 -8 -41 -10 -3 -2 -33 -7 -65
-10 -33 -4 -63 -9 -66 -11 -3 -2 -34 -6 -70 -9 -35 -4 -69 -8 -76 -10 -20 -6
-251 -18 -353 -19 -101 0 -309 11 -350 18 -14 3 -52 8 -85 11 -33 3 -67 8 -75
10 -8 2 -32 6 -52 9 -53 8 -209 43 -313 71 -306 81 -643 235 -925 421 -36 23
-81 54 -100 68 -19 14 -46 34 -59 43 -166 119 -408 348 -556 528 -28 33 -52
62 -55 65 -12 11 -139 189 -181 255 -176 271 -321 593 -405 901 -14 53 -28
108 -30 122 -3 14 -7 28 -9 31 -4 8 -42 220 -51 286 -3 27 -8 61 -10 75 -6 53
-17 255 -17 348 -1 100 12 361 17 371 2 3 7 35 10 71 4 36 9 74 11 85 3 11 7
31 9 45 33 205 100 439 187 658 265 665 760 1241 1382 1606 94 55 328 173 382
193 17 6 79 30 138 53 173 66 409 129 577 156 19 3 42 7 50 9 8 2 42 7 75 11
33 3 69 8 80 10 11 2 76 7 145 10 69 4 126 7 127 8 4 3 203 -2 308 -9z"/>
<path d="M4527 4524 c-1 -1 -38 -5 -82 -8 -77 -6 -205 -21 -256 -31 -19 -4
-53 -11 -99 -20 -3 -1 -18 -4 -35 -8 -16 -4 -40 -9 -52 -12 -83 -15 -311 -93
-478 -163 -87 -36 -330 -165 -422 -223 -54 -34 -103 -62 -109 -62 -6 0 -61 19
-123 42 -217 81 -503 152 -677 168 -146 13 -374 8 -474 -12 -107 -21 -146 -31
-225 -57 -404 -134 -757 -434 -965 -820 -34 -64 -40 -83 -36 -115 3 -21 8 -58
11 -83 19 -161 78 -410 138 -585 328 -957 1115 -1689 2089 -1944 109 -29 229
-54 313 -66 22 -3 47 -7 55 -10 67 -18 573 -28 705 -13 508 58 935 208 1349
475 84 55 250 174 266 192 3 3 37 33 75 66 235 200 474 491 640 780 159 277
291 633 344 930 6 33 13 69 15 80 2 12 7 48 11 80 4 33 9 69 11 79 22 118 21
563 0 671 -3 11 -5 30 -5 42 -1 17 -28 40 -115 98 -63 41 -117 75 -120 75 -3
0 -29 15 -58 34 -127 80 -415 207 -618 271 -105 34 -286 82 -338 91 -15 2 -49
9 -77 14 -27 5 -70 12 -95 15 -25 3 -52 8 -60 10 -47 12 -493 29 -503 19z"/>
</g>
</svg>
