<svg xmlns="http://www.w3.org/2000/svg" width="1em" height="1em" viewBox="0 0 24 24"><path fill="currentColor" d="M23.642 5.43a.4.4 0 0 1 .014.1v5.149c0 .135-.073.26-.189.326l-4.323 2.49v4.934a.38.38 0 0 1-.188.326L9.93 23.949a.3.3 0 0 1-.066.027l-.024.01a.35.35 0 0 1-.192 0q-.016-.005-.03-.012q-.031-.01-.062-.025L.533 18.755a.38.38 0 0 1-.189-.326V2.974q0-.05.014-.098c.003-.012.01-.02.014-.032a.4.4 0 0 1 .023-.058c.004-.013.015-.022.023-.033l.033-.045l.037-.027q.02-.018.041-.034H.53L5.043.05a.38.38 0 0 1 .375 0L9.93 2.647h.002q.021.015.04.033l.038.027c.013.014.02.03.033.045c.008.011.02.021.025.033q.014.029.024.058c.003.011.01.021.013.032q.014.047.014.098v9.652l3.76-2.164V5.527q0-.05.013-.098q.007-.014.013-.032l.024-.059c.007-.012.018-.02.025-.033l.033-.043q.019-.017.037-.028q.02-.017.041-.032h.001l4.513-2.598a.38.38 0 0 1 .375 0l4.513 2.598c.016.01.027.021.042.031l.036.028l.034.044c.008.012.019.021.024.033a.3.3 0 0 1 .024.06q.01.015.015.032m-.74 5.032V6.179l-1.578.908l-2.182 1.256v4.283zm-4.51 7.75v-4.287l-2.147 1.225l-6.126 3.498v4.325zM1.093 3.624v14.588l8.273 4.761v-4.325l-4.322-2.445l-.002-.003H5.04L5 16.169l-.035-.027l-.001-.002q-.018-.018-.031-.04q-.016-.016-.028-.036h-.002l-.02-.047c-.006-.016-.014-.027-.018-.043l-.008-.057q-.005-.02-.006-.041V5.789l-2.18-1.257zM5.23.81L1.47 2.974l3.76 2.164l3.758-2.164zm1.956 13.505l2.182-1.256V3.624l-1.58.91l-2.182 1.255v9.435zm11.581-10.95l-3.76 2.163l3.76 2.163l3.759-2.164zm-.376 4.978L16.21 7.087l-1.58-.907v4.283l2.182 1.256l1.58.908zm-8.65 9.654l5.514-3.148l2.756-1.572l-3.757-2.163l-4.323 2.489l-3.941 2.27z"/></svg>