<svg width="138" height="126" viewBox="0 0 138 126" fill="none" xmlns="http://www.w3.org/2000/svg">
<path d="M80.3171 15.4879C76.4605 11.8693 71.2183 8.04845 65.216 6.57971C70.0181 3.13898 76.8511 0.122542 85.3687 1.26805C95.6867 2.65782 102.662 10.5858 106.689 16.964C95.1582 12.5168 85.5688 13.9571 80.3171 15.4879Z" fill="#D8D1D7"/>
<path d="M73.3198 2.39038C79.4401 5.08254 84.5675 9.71827 88.3978 14.0771C85.1297 14.2971 82.386 14.8846 80.3171 15.4879V15.489C76.4595 11.8693 71.2173 8.04843 65.216 6.5797C67.4786 4.9583 70.1928 3.43271 73.3198 2.39038Z" fill="#CAC0C9"/>
<path d="M53.643 7.05982C64.3769 3.35376 74.1284 9.68249 80.3171 15.4879C86.6269 13.6486 99.1949 11.9324 113.873 20.41C134.389 32.2599 141.512 55.0985 131.243 116.264C130.426 121.131 125.717 124.395 120.894 123.35C120.815 123.333 120.736 123.315 120.657 123.296C116.343 122.286 113.489 118.171 114.022 113.771L116.969 89.4585C116.969 89.4585 98.561 100.411 76.5932 84.9797C58.4072 96.519 37.5059 79.0837 33.9472 57.9191C29.8358 33.4634 35.4623 13.3359 53.643 7.05982Z" fill="#E6E2E6"/>
<path d="M3.80495 59.1036C9.58935 36.7683 19.6062 27.5011 34.9116 27.2473C32.2352 35.8492 32.012 46.404 33.9472 57.9191C37.5058 79.0837 58.4061 96.5179 76.5921 84.9807C77.1164 85.3366 77.6397 85.6998 78.1724 86.0441C85.2971 90.683 92.0028 92.5981 97.7703 93.0909C96.0068 98.989 93.1199 108.165 89.7676 117.027C88.283 120.951 84.5233 123.546 80.3276 123.546H76.889C72.2375 123.546 68.1882 120.366 67.0848 115.846L65.6445 109.945H37.2153L35.7739 115.846C34.6716 120.366 30.6212 123.546 25.9697 123.546H22.1415C18.1828 123.546 14.5862 121.235 12.9532 117.629C7.82792 106.313 -1.81309 80.7988 3.80495 59.1036Z" fill="#D8D1D7"/>
<path d="M3.80497 59.1036C9.58936 36.7683 19.6062 27.5011 34.9116 27.2473C34.8105 27.5716 34.72 27.9043 34.6263 28.2338C23.5039 31.1513 15.8539 40.6818 11.0823 59.1036C5.46427 80.7977 15.1053 106.312 20.2306 117.629C21.6246 120.706 24.4515 122.835 27.7111 123.394C27.1436 123.493 26.5614 123.546 25.9697 123.546H22.1426C18.1838 123.546 14.5873 121.235 12.9543 117.629C7.82793 106.313 -1.81308 80.7988 3.80497 59.1036Z" fill="#CAC0C9"/>
<path d="M116.629 92.2644C116.678 92.2538 116.725 92.2422 116.772 92.2307C120.336 91.3821 123.657 94.3301 123.216 97.9666L121.3 113.772C120.836 117.592 122.928 121.196 126.312 122.741C124.677 123.503 122.796 123.763 120.894 123.35C120.816 123.333 120.737 123.315 120.657 123.297C116.343 122.286 113.489 118.172 114.022 113.772L116.629 92.2644Z" fill="#D8D1D7"/>
<path d="M53.643 7.05979C57.1753 5.83953 60.6013 5.71214 63.8294 6.29015C62.8692 6.46914 61.8984 6.72077 60.9203 7.05979C42.7396 13.3359 37.1131 33.4633 41.2246 57.9202C43.763 73.0118 55.1191 86.203 68.0208 88.3498C52.348 91.0262 36.9552 75.805 33.9472 57.9202C29.8358 33.4633 35.4623 13.3359 53.643 7.05979Z" fill="#D8D1D7"/>
<path d="M33.9472 57.9191C37.5059 79.0837 58.4061 96.5179 76.5921 84.9807C77.1164 85.3366 77.6397 85.6998 78.1724 86.0441C85.2971 90.683 92.0028 92.5981 97.7703 93.0909C97.146 95.1808 96.3784 97.6845 95.5004 100.439C89.8265 100.112 82.9324 98.0993 75.175 92.6487C56.989 104.188 32.729 85.6019 29.1704 64.4384C26.7193 49.8637 27.729 36.8283 32.7912 27.3442C33.486 27.2915 34.1925 27.2599 34.9106 27.2484C32.2353 35.8502 32.012 46.404 33.9472 57.9191Z" fill="#CAC0C9"/>
<path d="M132.262 40.7528C131.39 41.2509 130.232 41.4612 129.654 40.3652C129.531 40.132 129.436 39.8861 129.303 39.6585C125.992 33.9954 119.975 26.788 113.852 23.2513C102.101 16.4646 91.7925 16.5067 85.2659 17.707C88.0759 20.7055 89.7173 23.0892 89.8226 23.2429C90.4522 24.1652 90.2153 25.4234 89.293 26.0541C88.3707 26.6847 87.1115 26.4478 86.4798 25.5255C86.3345 25.3139 71.7377 4.34519 55.2268 10.0464C47.0724 12.8607 41.3586 18.7156 38.2442 27.447C35.2846 35.7456 34.8003 46.5574 36.845 58.7158C38.24 67.0123 46.4682 77.4367 52.5 83C53.3212 83.7581 53.3739 85.0383 52.6158 85.8596C51.8683 86.6703 51 87 49.7563 85.9754C42.7438 80.1984 34.3939 68.5516 32.8536 59.3875C31.0363 48.581 31.1364 38.7126 33.1168 30.5224C24.1085 31.4068 16.0743 38.6739 11.1658 47.5C10.6299 48.4634 9.37809 48.8224 8.41367 48.2854C7.43662 47.7422 6.78857 47.043 7.62824 45.5333C13.46 35.0479 23.2063 26.9753 34.3339 26.3752C34.3665 26.2794 34.3992 26.1825 34.4329 26.0867C37.9305 16.2804 44.6645 9.41049 53.9065 6.22033C57.72 4.90321 61.6892 4.66842 65.7143 5.49281C72.1315 1.13714 79.333 -0.647456 86.5977 0.329595C97.3832 1.78148 104.696 9.74214 109.02 16.4015C111.246 17.2932 113.536 18.3945 115.877 19.7464C122.76 23.722 129.383 31.6403 133.013 37.9911C133.809 39.3836 133.231 40.1979 132.262 40.7528ZM86.0587 4.34203C80.7712 3.6303 75.6733 4.56524 70.8565 7.11421C73.7223 8.32815 76.5956 10.0622 79.4404 12.3164C80.2764 12.9776 81.0681 13.6514 81.8167 14.3242C86.4461 13.1292 93.7246 12.1858 102.453 14.2957C98.5645 9.64738 93.137 5.29487 86.0587 4.34203Z" fill="black"/>
<path d="M103.814 65.7787C103.814 68.6404 102.009 70.8808 99.7065 70.8808C97.4029 70.8808 95.5993 68.6404 95.5993 65.7787C95.5993 62.9181 97.4029 60.6776 99.7065 60.6776C102.01 60.6776 103.814 62.9181 103.814 65.7787Z" fill="black"/>
<path d="M1.77295 58.5898C2.63419 55.2628 5.69064 48.7051 7.38995 46.175C8.08514 45.1399 8.95451 44.6031 10 45C10.8454 45.3201 11.3514 46.1456 11.3043 47.002C11.2815 47.4151 11.0525 47.7779 10.8309 48.1272C9.11931 50.8251 6.46215 56.6279 5.69064 59.6047C0.146299 81.0135 10.1684 106.773 14.7336 116.854C16.0371 119.73 18.924 121.589 22.0889 121.589H25.9213C29.6579 121.589 32.8859 119.054 33.7714 115.425L35.2138 109.516C35.4349 108.61 36.2467 107.973 37.1795 107.973H65.6414C66.5742 107.973 67.387 108.61 67.607 109.516L69.0495 115.425C69.936 119.054 73.164 121.589 76.8996 121.589H80.3413C83.6821 121.589 86.7185 119.491 87.8998 116.371C90.8236 108.64 93.3757 100.728 95.1729 94.8376C89.6591 94.0142 83.2693 91.9053 76.5342 87.4096C74.1706 88.7541 71.7037 89.7007 69.1389 90.2271C67.5765 90.5482 65.9941 90.7082 64.4021 90.7082C60.1549 90.7082 54.6752 88.7876 50.568 86.5576C49 85.5 49.2214 84.7951 49.7552 83.8128C50.289 82.8305 51.5177 82.4673 52.5 83C62.5 90 74.8728 86.6621 83.2441 76.1525C83.9305 75.2892 85.2245 75.1428 86.0878 75.8293C86.9501 76.5168 87.0975 77.8107 86.41 78.673C84.4454 81.1409 82.3649 83.2309 80.1834 84.9481C88.0883 89.8681 96.3058 91.919 104.647 91.0483C111.536 90.3282 115.951 87.7708 115.99 87.7476C117.407 86.9043 119.232 88.0972 119.034 89.7312L116.084 114.071C115.672 117.469 117.862 120.616 121.179 121.394C123.072 121.835 125.085 121.454 126.658 120.304C128.071 119.271 129.03 117.714 129.318 115.988C135.164 81.1757 134.725 54.9727 129.5 40C129.132 38.944 129.688 37.79 130.744 37.4226C131.799 37.0541 132.5 37 133.322 38.666C136.079 46.5688 138.097 59.3163 137.995 71.4325C137.891 83.7152 136.358 98.5089 133.311 116.658C132.825 119.55 131.154 122.153 128.725 123.797C126.236 125.485 123.177 126.019 120.255 125.334C114.926 124.085 111.405 119.033 112.066 113.584L114.581 92.8287C112.371 93.6731 109.192 94.6196 105.282 95.0502C103.509 95.2461 101.494 95.3398 99.2812 95.2387C97.4566 101.262 94.7792 109.626 91.6859 117.802C89.9139 122.488 85.3551 125.636 80.3424 125.636H76.9006C71.2931 125.636 66.4478 121.832 65.1181 116.384L64.0526 112.02H38.7693L37.7038 116.384C36.374 121.832 31.5288 125.636 25.9223 125.636H22.0899C17.3384 125.636 13.0038 122.845 11.0476 118.524C8.36489 112.6 4.67041 103.318 2.30254 92.7308C-0.57808 79.8438 -0.757066 68.3571 1.77295 58.5898Z" fill="black"/>
</svg>
