<svg width="50" height="50" fill="none" xmlns="http://www.w3.org/2000/svg"><path fill-rule="evenodd" clip-rule="evenodd" d="M17.021 20.692c-3.056 2.08-5.373 4.379-6.113 7.159-2.665 9.847.88 24.721 19.198 21.64a24.972 24.972 0 0 0 9.667-4.316 25.074 25.074 0 0 0 7.024-7.94c-11.81 16.79-36.498 2.988-29.781-16.543h.006Z" fill="url(#a)"/><path fill-rule="evenodd" clip-rule="evenodd" d="M35.364 33.711c9.98 10.822 17.969-6.37 12.457-18.929a25.07 25.07 0 0 0-9.242-10.775A24.94 24.94 0 0 0 24.987 0c-2.196 0-4.383.29-6.506.857 28.115-2.872 30.87 35.288 16.88 32.854h.003Z" fill="url(#b)"/><path fill-rule="evenodd" clip-rule="evenodd" d="M30.106 49.49c-11.163 1.739-16.14-11.12-15.283-20.366.647-6.857 4.168-13.647 8.915-18.883 3.197-3.522-1.066-5.838-3.752-3.104a89.714 89.714 0 0 0-4.727 5.306c-1.437 1.761-3.821.532-2.989-1.646a5.549 5.549 0 0 1 .857-1.53c2.292-2.941-1.736-5.63-4.723-2.971a24.844 24.844 0 0 0-6.216 8.441A24.924 24.924 0 0 0 0 25.001c0 13.808 11.185 24.993 24.987 24.993 1.72.009 3.435-.162 5.119-.51v.006Z" fill="url(#c)"/><path fill-rule="evenodd" clip-rule="evenodd" d="M32.445 24.074c1.037-2.363-1.597-3.43-3.01-1.738-.539.65-1.02 1.346-1.436 2.08-.764 1.368-2.039.58-1.69-.602a27.39 27.39 0 0 1 1.76-4.518c1.343-2.64-1.713-3.498-2.942-1.598-1.691 2.641-2.57 5.977-2.455 9.291.023 1.227-1.481 1.181-1.528.022a1.836 1.836 0 0 1 0-.51c.115-2.432-3.196-2.802-3.336.094-.554 10.541 9.357 18.86 19.732 15.802 7.27-2.179 12.46-9.64 12.46-17.4a24.94 24.94 0 0 0-2.202-10.265c2.896 6.51-.927 17.446-8.382 18.999-2.176.445-5.211.185-6.855-1.436-2.34-2.294-1.297-5.562-.116-8.226v.005Z" fill="url(#d)"/><path fill-rule="evenodd" clip-rule="evenodd" d="M14.658 4.565a2.27 2.27 0 0 0 1.609-.669 2.287 2.287 0 0 0 0-3.227 2.27 2.27 0 0 0-3.217 0 2.287 2.287 0 0 0 0 3.227 2.27 2.27 0 0 0 1.608.669Z" fill="url(#e)"/><path fill-rule="evenodd" clip-rule="evenodd" d="M26.748 6.372a1.393 1.393 0 0 0 1.28-.88 1.407 1.407 0 0 0-.32-1.522 1.395 1.395 0 0 0-2.373 1.012 1.4 1.4 0 0 0 .876 1.29c.17.069.353.102.537.1Z" fill="url(#f)"/><path fill-rule="evenodd" clip-rule="evenodd" d="M28.485 15.014a1.288 1.288 0 0 0 1.208-.787 1.301 1.301 0 0 0-.93-1.781 1.288 1.288 0 0 0-1.332.548 1.3 1.3 0 0 0 1.054 2.02Z" fill="url(#g)"/><path fill-rule="evenodd" clip-rule="evenodd" d="M19.894 23.17a1.577 1.577 0 0 0 1.45-.994 1.592 1.592 0 0 0-.36-1.725 1.58 1.58 0 0 0-2.69 1.143c.006.421.177.823.476 1.119.3.295.704.46 1.124.457Z" fill="url(#h)"/><defs><linearGradient id="a" x1="40.879" y1="51.248" x2="14.116" y2="26.074" gradientUnits="userSpaceOnUse"><stop stop-color="#2A77FF"/><stop offset=".53" stop-color="#003AF5"/><stop offset="1" stop-color="#0D007A"/></linearGradient><linearGradient id="b" x1="31.45" y1="3.975" x2="44.165" y2="32.504" gradientUnits="userSpaceOnUse"><stop stop-color="#2A77FF"/><stop offset=".53" stop-color="#003AF5"/><stop offset="1" stop-color="#0D007A"/></linearGradient><linearGradient id="c" x1="11.216" y1="18.828" x2="29.811" y2="42.591" gradientUnits="userSpaceOnUse"><stop stop-color="#6DFFFF"/><stop offset=".49" stop-color="#00C2FF"/><stop offset="1" stop-color="#158CFF"/></linearGradient><linearGradient id="d" x1="17.785" y1="28.89" x2="50" y2="28.89" gradientUnits="userSpaceOnUse"><stop stop-color="#6DFFFF"/><stop offset=".49" stop-color="#00C2FF"/><stop offset="1" stop-color="#158CFF"/></linearGradient><linearGradient id="e" x1="12.366" y1="2.282" x2="16.93" y2="2.282" gradientUnits="userSpaceOnUse"><stop stop-color="#6DFFFF"/><stop offset=".49" stop-color="#00C2FF"/><stop offset="1" stop-color="#158CFF"/></linearGradient><linearGradient id="f" x1="25.335" y1="4.97" x2="28.138" y2="4.97" gradientUnits="userSpaceOnUse"><stop stop-color="#6DFFFF"/><stop offset=".49" stop-color="#00C2FF"/><stop offset="1" stop-color="#158CFF"/></linearGradient><linearGradient id="g" x1="27.211" y1="13.717" x2="29.782" y2="13.717" gradientUnits="userSpaceOnUse"><stop stop-color="#6DFFFF"/><stop offset=".49" stop-color="#00C2FF"/><stop offset="1" stop-color="#158CFF"/></linearGradient><linearGradient id="h" x1="18.295" y1="21.583" x2="21.468" y2="21.583" gradientUnits="userSpaceOnUse"><stop stop-color="#6DFFFF"/><stop offset=".49" stop-color="#00C2FF"/><stop offset="1" stop-color="#158CFF"/></linearGradient></defs></svg>